<mxfile host="app.diagrams.net" modified="2022-06-07T11:52:12.203Z" agent="5.0 (Windows)" etag="cfQvFLe1B95z9rsaUXvR" version="19.0.2" type="github">
  <diagram id="wCfT4IIsxB84TyIPlbjF" name="Page-1">
    <mxGraphModel dx="1209" dy="652" grid="1" gridSize="10" guides="1" tooltips="1" connect="1" arrows="1" fold="1" page="1" pageScale="1" pageWidth="827" pageHeight="1169" math="0" shadow="0">
      <root>
        <mxCell id="0" />
        <mxCell id="1" parent="0" />
        <mxCell id="GMI5vMoTnjVR4hSWjUON-3" value="&lt;pre dir=&quot;ltr&quot; style=&quot;text-align:left&quot; id=&quot;tw-target-text&quot; data-placeholder=&quot;Перевод&quot; class=&quot;tw-data-text tw-text-large tw-ta&quot;&gt;&lt;span class=&quot;Y2IQFc&quot; lang=&quot;en&quot;&gt;network device selection&lt;/span&gt;&lt;/pre&gt;" style="rounded=1;whiteSpace=wrap;html=1;" vertex="1" parent="1">
          <mxGeometry x="326" y="10" width="176" height="60" as="geometry" />
        </mxCell>
        <mxCell id="GMI5vMoTnjVR4hSWjUON-45" value="" style="edgeStyle=orthogonalEdgeStyle;rounded=0;orthogonalLoop=1;jettySize=auto;html=1;fontColor=#009900;strokeColor=#000000;" edge="1" parent="1" source="GMI5vMoTnjVR4hSWjUON-4" target="GMI5vMoTnjVR4hSWjUON-43">
          <mxGeometry relative="1" as="geometry" />
        </mxCell>
        <mxCell id="GMI5vMoTnjVR4hSWjUON-4" value="&lt;div&gt;device type&lt;br&gt;&lt;/div&gt;&lt;div&gt;Mikrotik&lt;/div&gt;" style="rounded=1;whiteSpace=wrap;html=1;" vertex="1" parent="1">
          <mxGeometry x="120" y="140" width="120" height="60" as="geometry" />
        </mxCell>
        <mxCell id="GMI5vMoTnjVR4hSWjUON-46" value="" style="edgeStyle=orthogonalEdgeStyle;rounded=0;orthogonalLoop=1;jettySize=auto;html=1;fontColor=#009900;strokeColor=#000000;" edge="1" parent="1" source="GMI5vMoTnjVR4hSWjUON-5" target="GMI5vMoTnjVR4hSWjUON-44">
          <mxGeometry relative="1" as="geometry" />
        </mxCell>
        <mxCell id="GMI5vMoTnjVR4hSWjUON-5" value="&lt;div&gt;device type&lt;br&gt;&lt;/div&gt;&lt;div&gt;Cisco&lt;br&gt;&lt;/div&gt;" style="rounded=1;whiteSpace=wrap;html=1;" vertex="1" parent="1">
          <mxGeometry x="600" y="140" width="120" height="60" as="geometry" />
        </mxCell>
        <mxCell id="GMI5vMoTnjVR4hSWjUON-6" value="" style="endArrow=classic;startArrow=classic;html=1;rounded=0;" edge="1" parent="1" source="GMI5vMoTnjVR4hSWjUON-4" target="GMI5vMoTnjVR4hSWjUON-3">
          <mxGeometry width="50" height="50" relative="1" as="geometry">
            <mxPoint x="390" y="330" as="sourcePoint" />
            <mxPoint x="440" y="280" as="targetPoint" />
          </mxGeometry>
        </mxCell>
        <mxCell id="GMI5vMoTnjVR4hSWjUON-7" value="" style="endArrow=classic;startArrow=classic;html=1;rounded=0;" edge="1" parent="1" source="GMI5vMoTnjVR4hSWjUON-5" target="GMI5vMoTnjVR4hSWjUON-3">
          <mxGeometry width="50" height="50" relative="1" as="geometry">
            <mxPoint x="390" y="330" as="sourcePoint" />
            <mxPoint x="440" y="280" as="targetPoint" />
          </mxGeometry>
        </mxCell>
        <mxCell id="GMI5vMoTnjVR4hSWjUON-9" value="ChoiseVar" style="swimlane;fontStyle=0;childLayout=stackLayout;horizontal=1;startSize=30;horizontalStack=0;resizeParent=1;resizeParentMax=0;resizeLast=0;collapsible=1;marginBottom=0;" vertex="1" parent="1">
          <mxGeometry x="110" y="400" width="140" height="120" as="geometry" />
        </mxCell>
        <mxCell id="GMI5vMoTnjVR4hSWjUON-10" value="Show IP address" style="text;strokeColor=none;fillColor=none;align=left;verticalAlign=middle;spacingLeft=4;spacingRight=4;overflow=hidden;points=[[0,0.5],[1,0.5]];portConstraint=eastwest;rotatable=0;fontColor=#FF3399;" vertex="1" parent="GMI5vMoTnjVR4hSWjUON-9">
          <mxGeometry y="30" width="140" height="30" as="geometry" />
        </mxCell>
        <mxCell id="GMI5vMoTnjVR4hSWjUON-11" value="Show User" style="text;strokeColor=none;fillColor=none;align=left;verticalAlign=middle;spacingLeft=4;spacingRight=4;overflow=hidden;points=[[0,0.5],[1,0.5]];portConstraint=eastwest;rotatable=0;fontColor=#00CC00;" vertex="1" parent="GMI5vMoTnjVR4hSWjUON-9">
          <mxGeometry y="60" width="140" height="30" as="geometry" />
        </mxCell>
        <mxCell id="GMI5vMoTnjVR4hSWjUON-12" value="Show Interfaces" style="text;strokeColor=none;fillColor=none;align=left;verticalAlign=middle;spacingLeft=4;spacingRight=4;overflow=hidden;points=[[0,0.5],[1,0.5]];portConstraint=eastwest;rotatable=0;" vertex="1" parent="GMI5vMoTnjVR4hSWjUON-9">
          <mxGeometry y="90" width="140" height="30" as="geometry" />
        </mxCell>
        <mxCell id="GMI5vMoTnjVR4hSWjUON-16" value="ChoiseVar" style="swimlane;fontStyle=0;childLayout=stackLayout;horizontal=1;startSize=30;horizontalStack=0;resizeParent=1;resizeParentMax=0;resizeLast=0;collapsible=1;marginBottom=0;" vertex="1" parent="1">
          <mxGeometry x="590" y="400" width="140" height="90" as="geometry" />
        </mxCell>
        <mxCell id="GMI5vMoTnjVR4hSWjUON-17" value="Show IP address" style="text;strokeColor=none;fillColor=none;align=left;verticalAlign=middle;spacingLeft=4;spacingRight=4;overflow=hidden;points=[[0,0.5],[1,0.5]];portConstraint=eastwest;rotatable=0;fontColor=#FF3399;" vertex="1" parent="GMI5vMoTnjVR4hSWjUON-16">
          <mxGeometry y="30" width="140" height="30" as="geometry" />
        </mxCell>
        <mxCell id="GMI5vMoTnjVR4hSWjUON-18" value="Show User" style="text;strokeColor=none;fillColor=none;align=left;verticalAlign=middle;spacingLeft=4;spacingRight=4;overflow=hidden;points=[[0,0.5],[1,0.5]];portConstraint=eastwest;rotatable=0;fontColor=#009900;" vertex="1" parent="GMI5vMoTnjVR4hSWjUON-16">
          <mxGeometry y="60" width="140" height="30" as="geometry" />
        </mxCell>
        <mxCell id="GMI5vMoTnjVR4hSWjUON-21" value="&lt;font color=&quot;#009900&quot;&gt;&#39;user print&#39;&lt;/font&gt;" style="text;html=1;strokeColor=none;fillColor=none;align=center;verticalAlign=middle;whiteSpace=wrap;rounded=0;" vertex="1" parent="1">
          <mxGeometry x="110" y="600" width="110" height="30" as="geometry" />
        </mxCell>
        <mxCell id="GMI5vMoTnjVR4hSWjUON-22" value="&lt;font color=&quot;#FF3399&quot;&gt;&#39;ip address print&#39;&lt;/font&gt;" style="text;html=1;strokeColor=none;fillColor=none;align=center;verticalAlign=middle;whiteSpace=wrap;rounded=0;" vertex="1" parent="1">
          <mxGeometry x="110" y="560" width="110" height="30" as="geometry" />
        </mxCell>
        <mxCell id="GMI5vMoTnjVR4hSWjUON-23" value="&#39;interface print&#39;" style="text;html=1;strokeColor=none;fillColor=none;align=center;verticalAlign=middle;whiteSpace=wrap;rounded=0;" vertex="1" parent="1">
          <mxGeometry x="110" y="640" width="110" height="30" as="geometry" />
        </mxCell>
        <mxCell id="GMI5vMoTnjVR4hSWjUON-33" value="&lt;font color=&quot;#009900&quot;&gt;&lt;span class=&quot;ILfuVd&quot;&gt;&lt;span class=&quot;hgKElc&quot;&gt;&lt;b&gt;show run | b username&lt;/b&gt;&lt;/span&gt;&lt;/span&gt;&lt;/font&gt;" style="text;html=1;strokeColor=none;fillColor=none;align=center;verticalAlign=middle;whiteSpace=wrap;rounded=0;" vertex="1" parent="1">
          <mxGeometry x="595" y="600" width="135" height="30" as="geometry" />
        </mxCell>
        <mxCell id="GMI5vMoTnjVR4hSWjUON-34" value="&lt;font color=&quot;#FF3399&quot;&gt;sh ip interface brief&lt;/font&gt;" style="text;html=1;strokeColor=none;fillColor=none;align=center;verticalAlign=middle;whiteSpace=wrap;rounded=0;" vertex="1" parent="1">
          <mxGeometry x="605" y="560" width="110" height="30" as="geometry" />
        </mxCell>
        <mxCell id="GMI5vMoTnjVR4hSWjUON-37" style="edgeStyle=orthogonalEdgeStyle;rounded=0;orthogonalLoop=1;jettySize=auto;html=1;exitX=1;exitY=0.5;exitDx=0;exitDy=0;entryX=1;entryY=0.5;entryDx=0;entryDy=0;strokeColor=#FF3399;" edge="1" parent="1" source="GMI5vMoTnjVR4hSWjUON-10" target="GMI5vMoTnjVR4hSWjUON-22">
          <mxGeometry relative="1" as="geometry" />
        </mxCell>
        <mxCell id="GMI5vMoTnjVR4hSWjUON-38" style="edgeStyle=orthogonalEdgeStyle;rounded=0;orthogonalLoop=1;jettySize=auto;html=1;exitX=1;exitY=0.5;exitDx=0;exitDy=0;entryX=1;entryY=0.5;entryDx=0;entryDy=0;fontColor=#00CC00;strokeColor=#00CC00;" edge="1" parent="1" source="GMI5vMoTnjVR4hSWjUON-11" target="GMI5vMoTnjVR4hSWjUON-21">
          <mxGeometry relative="1" as="geometry">
            <Array as="points">
              <mxPoint x="260" y="475" />
              <mxPoint x="260" y="615" />
            </Array>
          </mxGeometry>
        </mxCell>
        <mxCell id="GMI5vMoTnjVR4hSWjUON-39" style="edgeStyle=orthogonalEdgeStyle;rounded=0;orthogonalLoop=1;jettySize=auto;html=1;exitX=0;exitY=0.5;exitDx=0;exitDy=0;entryX=0;entryY=0.5;entryDx=0;entryDy=0;fontColor=#00CC00;strokeColor=#000000;" edge="1" parent="1" source="GMI5vMoTnjVR4hSWjUON-12" target="GMI5vMoTnjVR4hSWjUON-23">
          <mxGeometry relative="1" as="geometry" />
        </mxCell>
        <mxCell id="GMI5vMoTnjVR4hSWjUON-41" style="edgeStyle=orthogonalEdgeStyle;rounded=0;orthogonalLoop=1;jettySize=auto;html=1;exitX=0;exitY=0.5;exitDx=0;exitDy=0;entryX=0;entryY=0.5;entryDx=0;entryDy=0;fontColor=#00FF00;strokeColor=#009900;" edge="1" parent="1" source="GMI5vMoTnjVR4hSWjUON-18" target="GMI5vMoTnjVR4hSWjUON-33">
          <mxGeometry relative="1" as="geometry" />
        </mxCell>
        <mxCell id="GMI5vMoTnjVR4hSWjUON-48" value="" style="edgeStyle=orthogonalEdgeStyle;rounded=0;orthogonalLoop=1;jettySize=auto;html=1;fontColor=#009900;strokeColor=#000000;" edge="1" parent="1" source="GMI5vMoTnjVR4hSWjUON-43" target="GMI5vMoTnjVR4hSWjUON-9">
          <mxGeometry relative="1" as="geometry" />
        </mxCell>
        <mxCell id="GMI5vMoTnjVR4hSWjUON-43" value="Choice device from Mikrotik type " style="rounded=1;whiteSpace=wrap;html=1;" vertex="1" parent="1">
          <mxGeometry x="120" y="260" width="120" height="60" as="geometry" />
        </mxCell>
        <mxCell id="GMI5vMoTnjVR4hSWjUON-47" value="" style="edgeStyle=orthogonalEdgeStyle;rounded=0;orthogonalLoop=1;jettySize=auto;html=1;fontColor=#009900;strokeColor=#000000;entryX=0.5;entryY=0;entryDx=0;entryDy=0;" edge="1" parent="1" source="GMI5vMoTnjVR4hSWjUON-44" target="GMI5vMoTnjVR4hSWjUON-16">
          <mxGeometry relative="1" as="geometry" />
        </mxCell>
        <mxCell id="GMI5vMoTnjVR4hSWjUON-44" value="Choice device from Cisco type " style="rounded=1;whiteSpace=wrap;html=1;" vertex="1" parent="1">
          <mxGeometry x="600" y="260" width="120" height="60" as="geometry" />
        </mxCell>
        <mxCell id="GMI5vMoTnjVR4hSWjUON-51" style="edgeStyle=orthogonalEdgeStyle;rounded=0;orthogonalLoop=1;jettySize=auto;html=1;exitX=0;exitY=0.5;exitDx=0;exitDy=0;entryX=0;entryY=0.5;entryDx=0;entryDy=0;fontColor=#009900;strokeColor=#FF3399;" edge="1" parent="1" source="GMI5vMoTnjVR4hSWjUON-17" target="GMI5vMoTnjVR4hSWjUON-34">
          <mxGeometry relative="1" as="geometry">
            <Array as="points">
              <mxPoint x="560" y="445" />
              <mxPoint x="560" y="575" />
            </Array>
          </mxGeometry>
        </mxCell>
        <mxCell id="GMI5vMoTnjVR4hSWjUON-52" value="run script" style="shape=hexagon;perimeter=hexagonPerimeter2;whiteSpace=wrap;html=1;fixedSize=1;fontColor=#009900;" vertex="1" parent="1">
          <mxGeometry x="105" y="760" width="120" height="80" as="geometry" />
        </mxCell>
        <mxCell id="GMI5vMoTnjVR4hSWjUON-53" value="run script" style="shape=hexagon;perimeter=hexagonPerimeter2;whiteSpace=wrap;html=1;fixedSize=1;fontColor=#009900;" vertex="1" parent="1">
          <mxGeometry x="600" y="760" width="120" height="80" as="geometry" />
        </mxCell>
        <mxCell id="GMI5vMoTnjVR4hSWjUON-54" value="" style="shape=flexArrow;endArrow=classic;html=1;rounded=0;fontColor=#009900;strokeColor=#000000;entryX=0.5;entryY=0;entryDx=0;entryDy=0;" edge="1" parent="1" target="GMI5vMoTnjVR4hSWjUON-52">
          <mxGeometry width="50" height="50" relative="1" as="geometry">
            <mxPoint x="165" y="680" as="sourcePoint" />
            <mxPoint x="390" y="810" as="targetPoint" />
            <Array as="points">
              <mxPoint x="165" y="720" />
            </Array>
          </mxGeometry>
        </mxCell>
        <mxCell id="GMI5vMoTnjVR4hSWjUON-55" value="" style="shape=flexArrow;endArrow=classic;html=1;rounded=0;fontColor=#009900;strokeColor=#000000;entryX=0.5;entryY=0;entryDx=0;entryDy=0;" edge="1" parent="1">
          <mxGeometry width="50" height="50" relative="1" as="geometry">
            <mxPoint x="659.5" y="680" as="sourcePoint" />
            <mxPoint x="659.5" y="760" as="targetPoint" />
          </mxGeometry>
        </mxCell>
        <mxCell id="GMI5vMoTnjVR4hSWjUON-56" value="&amp;nbsp;command = data[&#39;input_command&#39;]&lt;br&gt;&lt;br&gt;&amp;nbsp;&amp;nbsp;&amp;nbsp;&amp;nbsp;&amp;nbsp;&amp;nbsp;&amp;nbsp; with ConnectHandler(**mik1) as net_connect:&lt;br&gt;&amp;nbsp;&amp;nbsp;&amp;nbsp;&amp;nbsp;&amp;nbsp;&amp;nbsp;&amp;nbsp;&amp;nbsp;&amp;nbsp;&amp;nbsp;&amp;nbsp; output = net_connect.send_command(command)&lt;br&gt;&lt;br&gt;&lt;br&gt;&amp;nbsp;&amp;nbsp;&amp;nbsp;&amp;nbsp;&amp;nbsp;&amp;nbsp;&amp;nbsp;&amp;nbsp;&amp;nbsp;&amp;nbsp;&amp;nbsp; self.log_success(&quot;View the information bellow&quot;)&lt;br&gt;&amp;nbsp;&amp;nbsp;&amp;nbsp;&amp;nbsp;&amp;nbsp;&amp;nbsp;&amp;nbsp; return &#39;&#39; .join(output)" style="rounded=1;whiteSpace=wrap;html=1;fontColor=#009900;" vertex="1" parent="1">
          <mxGeometry x="7.5" y="930" width="345" height="140" as="geometry" />
        </mxCell>
        <mxCell id="GMI5vMoTnjVR4hSWjUON-57" value="" style="endArrow=classic;html=1;rounded=0;fontColor=#009900;strokeColor=#000000;" edge="1" parent="1" source="GMI5vMoTnjVR4hSWjUON-52" target="GMI5vMoTnjVR4hSWjUON-56">
          <mxGeometry width="50" height="50" relative="1" as="geometry">
            <mxPoint x="390" y="890" as="sourcePoint" />
            <mxPoint x="440" y="840" as="targetPoint" />
          </mxGeometry>
        </mxCell>
        <mxCell id="GMI5vMoTnjVR4hSWjUON-59" value="" style="endArrow=classic;html=1;rounded=0;fontColor=#009900;strokeColor=#000000;" edge="1" parent="1" source="GMI5vMoTnjVR4hSWjUON-53" target="GMI5vMoTnjVR4hSWjUON-60">
          <mxGeometry width="50" height="50" relative="1" as="geometry">
            <mxPoint x="175" y="850" as="sourcePoint" />
            <mxPoint x="660" y="930" as="targetPoint" />
          </mxGeometry>
        </mxCell>
        <mxCell id="GMI5vMoTnjVR4hSWjUON-60" value="&amp;nbsp;command = data[&#39;input_command&#39;]&lt;br&gt;&lt;br&gt;&amp;nbsp;&amp;nbsp;&amp;nbsp;&amp;nbsp;&amp;nbsp;&amp;nbsp;&amp;nbsp; with ConnectHandler(**cisco1) as net_connect:&lt;br&gt;&amp;nbsp;&amp;nbsp;&amp;nbsp;&amp;nbsp;&amp;nbsp;&amp;nbsp;&amp;nbsp;&amp;nbsp;&amp;nbsp;&amp;nbsp;&amp;nbsp; output = net_connect.send_command(command)&lt;br&gt;&lt;br&gt;&lt;br&gt;&amp;nbsp;&amp;nbsp;&amp;nbsp;&amp;nbsp;&amp;nbsp;&amp;nbsp;&amp;nbsp;&amp;nbsp;&amp;nbsp;&amp;nbsp;&amp;nbsp; self.log_success(&quot;View the information bellow&quot;)&lt;br&gt;&amp;nbsp;&amp;nbsp;&amp;nbsp;&amp;nbsp;&amp;nbsp;&amp;nbsp;&amp;nbsp; return &#39;&#39; .join(output)" style="rounded=1;whiteSpace=wrap;html=1;fontColor=#009900;" vertex="1" parent="1">
          <mxGeometry x="470" y="930" width="345" height="140" as="geometry" />
        </mxCell>
      </root>
    </mxGraphModel>
  </diagram>
</mxfile>
